<svg xmlns="http://www.w3.org/2000/svg" xmlns:xlink="http://www.w3.org/1999/xlink" viewBox="0 0 535 180" width="535" height="180" preserveAspectRatio="xMidYMid meet" style="width: 100%; height: 100%; transform: translate3d(0px, 0px, 0px); content-visibility: visible;"><defs><clipPath id="__lottie_element_50"><rect width="535" height="180" x="0" y="0"></rect></clipPath><clipPath id="__lottie_element_54"><path d="M0,0 L211,0 L211,72 L0,72z"></path></clipPath><clipPath id="__lottie_element_59"><path d="M0,0 L105,0 L105,89 L0,89z"></path></clipPath><clipPath id="__lottie_element_64"><path d="M0,0 L105,0 L105,88 L0,88z"></path></clipPath><clipPath id="__lottie_element_68"><path d="M0,0 L211,0 L211,72 L0,72z"></path></clipPath><g id="__lottie_element_71"><g style="display: block;" transform="matrix(1,0,0,1,1,5)" opacity="1"><g opacity="1" transform="matrix(1,0,0,1,-0.714996337890625,-21.727998733520508)"><g opacity="1" transform="matrix(1,0,0,1,105,44.22200012207031)"><path fill="rgb(0,0,0)" fill-opacity="1" d=" M105,-44.22200012207031 C105,-44.22200012207031 105,44.22200012207031 105,44.22200012207031 C105,44.22200012207031 -105,44.22200012207031 -105,44.22200012207031 C-105,44.22200012207031 -105,-44.22200012207031 -105,-44.22200012207031 C-105,-44.22200012207031 105,-44.22200012207031 105,-44.22200012207031z"></path></g></g></g></g><mask id="__lottie_element_71_1" mask-type="alpha"><use xlink:href="#__lottie_element_71"></use></mask><clipPath id="__lottie_element_114"><path d="M0,0 L105,0 L105,89 L0,89z"></path></clipPath><g id="__lottie_element_117"><g style="display: block;" transform="matrix(1,0,0,1,53,51)" opacity="1"><g opacity="1" transform="matrix(1,0,0,1,0.81640625,-0.75604248046875)"><path stroke-linecap="butt" stroke-linejoin="miter" fill-opacity="0" stroke-miterlimit="4" stroke="rgb(232,82,111)" stroke-opacity="1" stroke-width="10" d=" M13.13690185546875,29.0223388671875 C13.13690185546875,29.0223388671875 -14.36309814453125,13.5223388671875 -23.86309814453125,3.0223388671875 C-33.36309814453125,-7.4776611328125 -27.86309814453125,-27.9776611328125 -7.36309814453125,-28.9776611328125 C13.13690185546875,-29.9776611328125 30.63690185546875,-13.9776611328125 28.13690185546875,-2.4776611328125 C25.63690185546875,9.0223388671875 20.63690185546875,11.5223388671875 20.63690185546875,11.5223388671875"></path></g></g></g><mask id="__lottie_element_117_1" mask-type="alpha"><use xlink:href="#__lottie_element_117"></use></mask><clipPath id="__lottie_element_127"><path d="M0,0 L105,0 L105,88 L0,88z"></path></clipPath><g id="__lottie_element_130"><g style="display: block;" transform="matrix(1,0,0,1,53,51)" opacity="1"><g opacity="1" transform="matrix(1,0,0,1,0.81640625,-0.75604248046875)"><path stroke-linecap="butt" stroke-linejoin="miter" fill-opacity="0" stroke-miterlimit="4" stroke="rgb(232,82,111)" stroke-opacity="1" stroke-width="10" d=" M13.13690185546875,29.0223388671875 C13.13690185546875,29.0223388671875 -14.36309814453125,13.5223388671875 -23.86309814453125,3.0223388671875 C-33.36309814453125,-7.4776611328125 -27.86309814453125,-27.9776611328125 -7.36309814453125,-28.9776611328125 C13.13690185546875,-29.9776611328125 30.63690185546875,-13.9776611328125 28.13690185546875,-2.4776611328125 C25.63690185546875,9.0223388671875 20.63690185546875,11.5223388671875 20.63690185546875,11.5223388671875"></path></g></g></g><mask id="__lottie_element_130_1" mask-type="alpha"><use xlink:href="#__lottie_element_130"></use></mask></defs><g clip-path="url(#__lottie_element_50)"><g clip-path="url(#__lottie_element_54)" style="display: block;" transform="matrix(2.4441466331481934,0,0,2.4441466331481934,13.66800308227539,-2.1993753910064697)" opacity="1"><g mask="url(#__lottie_element_71_1)" style="display: block;"><g clip-path="url(#__lottie_element_68)" transform="matrix(1,0,0,1,0,0)" opacity="1"><g style="display: block;" transform="matrix(1,0,0,1,1,5)" opacity="1"><path fill="rgb(0,0,0)" fill-opacity="0" d=" M210,-5 C210,-5 210,67 210,67 C210,67 -1,67 -1,67 C-1,67 -1,-5 -1,-5 C-1,-5 210,-5 210,-5z"></path></g><g style="display: block;" transform="matrix(1,0,0,1,1,5)" opacity="1"><g opacity="1" transform="matrix(1,0,0,1,0.0039997100830078125,0.3339977264404297)"><path fill="rgb(232,82,111)" fill-opacity="1" d=" M22.708999633789062,32.625 C26.363000869750977,32.625 28.972999572753906,31.58099937438965 28.320999145507812,26.881999969482422 C27.64699935913086,22.11833381652832 26.972999572753906,17.354665756225586 26.298999786376953,12.590999603271484 C25.31999969482422,5.934000015258789 22.513999938964844,2.2149999141693115 17.48900032043457,2.2149999141693115 C12.855999946594238,2.2149999141693115 9.20199966430664,6.914999961853027 8.940999984741211,12.460000038146973 C8.940999984741211,17.245332717895508 8.940999984741211,22.03066635131836 8.940999984741211,26.81599998474121 C8.940999984741211,31.579999923706055 11.093999862670898,32.624000549316406 14.161999702453613,32.624000549316406 C14.161999702453613,32.8849983215332 14.161999702453613,33.145999908447266 14.161999702453613,33.40700149536133 C9.441333770751953,33.40700149536133 4.720666885375977,33.40700149536133 0,33.40700149536133 C0,33.145999908447266 0,32.8849983215332 0,32.624000549316406 C3.132999897003174,32.624000549316406 5.2210001945495605,31.579999923706055 5.2210001945495605,26.81599998474121 C5.2210001945495605,20.22533416748047 5.2210001945495605,13.634666442871094 5.2210001945495605,7.044000148773193 C5.2210001945495605,3.5850000381469727 3.5889999866485596,2.997999906539917 0.4569999873638153,2.997999906539917 C0.4569999873638153,2.736999988555908 0.4569999873638153,2.4760000705718994 0.4569999873638153,2.2149999141693115 C3.2308967113494873,2.108428716659546 5.947974681854248,1.3968212604522705 8.418000221252441,0.12999999523162842 C8.592000007629395,0.21699999272823334 8.765999794006348,0.30399999022483826 8.9399995803833,0.39100000262260437 C8.9399995803833,3.1536667346954346 8.9399995803833,5.916333198547363 8.9399995803833,8.678999900817871 C10.178999900817871,3.8499999046325684 14.095000267028809,0 19.25,0 C25.058000564575195,0 28.711999893188477,3.8499999046325684 29.950000762939453,12.008000373840332 C30.667667388916016,16.967666625976562 31.385334014892578,21.92733383178711 32.10300064086914,26.886999130249023 C32.755001068115234,31.586999893188477 34.84400177001953,32.630001068115234 37.9109992980957,32.630001068115234 C37.9109992980957,32.89099884033203 37.9109992980957,33.152000427246094 37.9109992980957,33.41299819946289 C32.84433364868164,33.41299819946289 27.777666091918945,33.41299819946289 22.711000442504883,33.41299819946289 C22.7103328704834,33.150333404541016 22.709667205810547,32.887664794921875 22.708999633789062,32.625 C22.708999633789062,32.625 22.708999633789062,32.625 22.708999633789062,32.625z"></path></g></g><g style="display: block;" transform="matrix(1,0,0,1,1,5)" opacity="1"><g opacity="1" transform="matrix(1,0,0,1,35.70000076293945,0.3269996643066406)"><g opacity="1" transform="matrix(1,0,0,1,0,0)"><path fill="rgb(232,82,111)" fill-opacity="1" d=" M7.105427357601002e-15,17.100000381469727 C7.105427357601002e-15,7.245999813079834 6.656000137329102,7.105427357601002e-15 15.138999938964844,7.105427357601002e-15 C22.382999420166016,7.105427357601002e-15 26.624000549316406,5.285999774932861 26.624000549316406,12.199999809265137 C19.054332733154297,12.199999809265137 11.48466682434082,12.199999809265137 3.9149999618530273,12.199999809265137 C3.7306907176971436,13.05785846710205 3.6428122520446777,13.933625221252441 3.6530001163482666,14.810999870300293 C3.6530001163482666,23.684999465942383 7.633999824523926,31.059999465942383 16.05299949645996,31.059999465942383 C21.926000595092773,31.059999465942383 26.03700065612793,27.145000457763672 27.341999053955078,20.55299949645996 C27.646333694458008,20.596332550048828 27.950666427612305,20.639667510986328 28.2549991607666,20.683000564575195 C27.08099937438965,28.382999420166016 21.4689998626709,34.06100082397461 14.420999526977539,34.06100082397461 C5.480999946594238,34.06100082397461 0,26.231000900268555 0,17.0939998626709 M20.229000091552734,11.093999862670898 C21.540651321411133,11.303694725036621 22.68474769592285,10.192158699035645 22.51300048828125,8.875 C22.51300048828125,5.808000087738037 20.424999237060547,0.9139999747276306 14.61299991607666,0.9139999747276306 C9.718000411987305,0.9139999747276306 5.4770002365112305,5.546999931335449 4.10699987411499,11.093999862670898 C9.480999946594238,11.093999862670898 14.854999542236328,11.093999862670898 20.229000091552734,11.093999862670898 C20.229000091552734,11.093999862670898 20.229000091552734,11.093999862670898 20.229000091552734,11.093999862670898z"></path><g opacity="1" transform="matrix(1,0,0,1,0,0)"></g><g opacity="1" transform="matrix(1,0,0,1,0,0)"></g></g></g></g><g style="display: block;" transform="matrix(1,0,0,1,1,5)" opacity="1"><g opacity="1" transform="matrix(1,0,0,1,61.932003021240234,0.3289985656738281)"><path fill="rgb(232,82,111)" fill-opacity="1" d=" M28.256999969482422,27.996000289916992 C26.104000091552734,31.388999938964844 23.101999282836914,34.064998626708984 19.316999435424805,34.064998626708984 C12.72599983215332,34.064998626708984 9.657999992370605,29.236000061035156 8.288000106811523,20.81800079345703 C7.504666805267334,16.27166748046875 6.7213335037231445,11.725333213806152 5.938000202178955,7.178999900817871 C5.15500020980835,2.4790000915527344 3.131999969482422,1.437000036239624 0,1.437000036239624 C0,1.1759999990463257 0,0.9150000214576721 0,0.6539999842643738 C4.699999809265137,0.6539999842643738 9.399999618530273,0.6539999842643738 14.100000381469727,0.6539999842643738 C14.100000381469727,0.9143333435058594 14.100000381469727,1.1746666431427002 14.100000381469727,1.434999942779541 C11.100000381469727,1.434999942779541 8.944999694824219,2.4790000915527344 9.663000106811523,7.177000045776367 C10.337333679199219,11.353666305541992 11.011666297912598,15.530333518981934 11.685999870300293,19.707000732421875 C12.925999641418457,26.951000213623047 15.013999938964844,31.322999954223633 20.691999435424805,31.322999954223633 C23.56399917602539,31.322999954223633 25.97800064086914,29.69099998474121 27.8700008392334,27.145999908447266 C27.070035934448242,25.10567283630371 26.499853134155273,22.982580184936523 26.170000076293945,20.81599998474121 C25.40833282470703,16.270334243774414 24.64666748046875,11.724666595458984 23.885000228881836,7.178999900817871 C23.101999282836914,2.4790000915527344 21.07900047302246,1.437000036239624 18.011999130249023,1.437000036239624 C18.011999130249023,1.1759999990463257 18.011999130249023,0.9150000214576721 18.011999130249023,0.6539999842643738 C22.68866729736328,0.6539999842643738 27.365333557128906,0.6539999842643738 32.04199981689453,0.6539999842643738 C32.04199981689453,0.9143333435058594 32.04199981689453,1.1746666431427002 32.04199981689453,1.434999942779541 C29.04199981689453,1.434999942779541 26.886999130249023,2.4790000915527344 27.670000076293945,7.177000045776367 C28.34433364868164,11.353666305541992 29.018667221069336,15.530333518981934 29.69300079345703,19.707000732421875 C30.868000030517578,27.016000747680664 32.95600128173828,31.322999954223633 38.56700134277344,31.322999954223633 C44.375,31.322999954223633 50.37900161743164,24.993000030517578 50.37900161743164,16.05299949645996 C50.37900161743164,7.504000186920166 46.071998596191406,1.63100004196167 39.67900085449219,4.111000061035156 C38.321102142333984,4.777194499969482 36.720458984375,3.857619524002075 36.61199951171875,2.3489999771118164 C36.547000885009766,1.1749999523162842 37.33000183105469,1.4210854715202004e-14 39.28799819946289,1.4210854715202004e-14 C44.96500015258789,1.4210854715202004e-14 51.487998962402344,4.307000160217285 51.487998962402344,15.335000038146973 C51.487998962402344,26.03499984741211 44.441001892089844,34.06399917602539 37.327999114990234,34.06399917602539 C32.88999938964844,34.06399917602539 30.083999633789062,31.910999298095703 28.256999969482422,27.9950008392334 C28.256999969482422,27.9950008392334 28.256999969482422,27.996000289916992 28.256999969482422,27.996000289916992z"></path></g></g><g style="display: block;" transform="matrix(1,0,0,1,1,5)" opacity="1"><g opacity="1" transform="matrix(1,0,0,1,115.83699798583984,0.0000019073486328125)"><path fill="rgb(232,82,111)" fill-opacity="1" d=" M0,21.472999572753906 C0.28299999237060547,21.406333923339844 0.5659999847412109,21.33966636657715 0.8489999771118164,21.273000717163086 C1.8930000066757202,24.666000366210938 4.372000217437744,33.21500015258789 12.72599983215332,33.34600067138672 C17.881000518798828,33.34600067138672 20.882999420166016,30.21299934387207 20.947999954223633,26.624000549316406 C21.01300048828125,22.77400016784668 18.402999877929688,20.81599998474121 12.333999633789062,18.858999252319336 C11.442000389099121,18.53266716003418 10.550000190734863,18.20633316040039 9.657999992370605,17.8799991607666 C4.436999797821045,16.18000030517578 0.8489999771118164,13.637999534606934 0.9139999747276306,8.680000305175781 C0.9789999723434448,4.046999931335449 5.414000034332275,0.3269999921321869 11.420000076293945,0.3269999921321869 C17.75,0.3919999897480011 19.57699966430664,5.0269999504089355 20.81999969482422,0.06599999964237213 C21.08099937438965,0.04399999976158142 21.341999053955078,0.02199999988079071 21.60300064086914,0 C21.972665786743164,3.9156665802001953 22.34233283996582,7.831333160400391 22.711999893188477,11.746999740600586 C22.429332733154297,11.79033374786377 22.14666748046875,11.833666801452637 21.86400032043457,11.876999855041504 C20.885000228881836,7.570000171661377 17.426000595092773,1.3700000047683716 11.22700023651123,1.305999994277954 C6.854000091552734,1.2400000095367432 4.113999843597412,4.242000102996826 4.113999843597412,7.636000156402588 C4.113999843597412,11.15999984741211 6.789000034332275,13.052000045776367 12.272000312805176,14.878999710083008 C13.142000198364258,15.161999702453613 14.01200008392334,15.444999694824219 14.881999969482422,15.727999687194824 C20.881999969482422,17.750999450683594 24.14900016784668,20.621999740600586 24.01799964904785,25.2549991607666 C23.88800048828125,30.93199920654297 18.535999298095703,34.45500183105469 13.055000305175781,34.39099884033203 C5.616000175476074,34.191001892089844 3.9839999675750732,29.952999114990234 2.2869999408721924,34.39099884033203 C1.9826666116714478,34.41266632080078 1.6783332824707031,34.43433380126953 1.3739999532699585,34.45600128173828 C0.9160000085830688,30.128334045410156 0.4580000042915344,25.80066680908203 0,21.472999572753906 C0,21.472999572753906 0,21.472999572753906 0,21.472999572753906z"></path></g></g><g style="display: block;" transform="matrix(1,0,0,1,1,5)" opacity="1"><g opacity="1" transform="matrix(1,0,0,1,141.4810028076172,0.332000732421875)"><g opacity="1" transform="matrix(1,0,0,1,0,0)"><path fill="rgb(232,82,111)" fill-opacity="1" d=" M0.004999999888241291,16.899999618530273 C0.004999999888241291,6.784999847412109 7.248000144958496,0 15.666000366210938,0 C24.14900016784668,0 31.32699966430664,7.439000129699707 31.32699966430664,16.966999053955078 C31.32699966430664,26.88599967956543 24.40999984741211,34.06700134277344 15.72700023651123,34.06700134277344 C6.916999816894531,34.06700134277344 0,26.236000061035156 0,16.905000686645508 M17.8799991607666,32.82699966430664 C24.993000030517578,31.97800064086914 28.45199966430664,23.427000045776367 27.211999893188477,15.07699966430664 C25.906999588012695,6.658999919891357 20.034000396728516,0.2639999985694885 13.312000274658203,1.2419999837875366 C6.394999980926514,2.2860000133514404 3.000999927520752,10.378000259399414 4.111999988555908,18.535999298095703 C5.2210001945495605,26.888999938964844 11.029000282287598,33.61000061035156 17.881000518798828,32.82699966430664"></path><g opacity="1" transform="matrix(1,0,0,1,0,0)"></g><g opacity="1" transform="matrix(1,0,0,1,0,0)"></g></g></g></g><g style="display: block;" transform="matrix(1,0,0,1,1,5)" opacity="1"><g opacity="1" transform="matrix(1,0,0,1,171.37100219726562,0.3299980163574219)"><path fill="rgb(232,82,111)" fill-opacity="1" d=" M22.708999633789062,32.62900161743164 C26.363000869750977,32.62900161743164 28.972999572753906,31.584999084472656 28.320999145507812,26.88599967956543 C27.64666748046875,22.122333526611328 26.972333908081055,17.358667373657227 26.29800033569336,12.595000267028809 C25.319000244140625,5.938000202178955 22.51300048828125,2.2190001010894775 17.488000869750977,2.2190001010894775 C12.854999542236328,2.2190001010894775 9.201000213623047,6.919000148773193 8.9399995803833,12.46399974822998 C8.9399995803833,17.249332427978516 8.9399995803833,22.034666061401367 8.9399995803833,26.81999969482422 C8.9399995803833,31.583999633789062 11.093000411987305,32.62799835205078 14.16100025177002,32.62799835205078 C14.16100025177002,32.888999938964844 14.16100025177002,33.150001525878906 14.16100025177002,33.4109992980957 C9.440666198730469,33.4109992980957 4.720333099365234,33.4109992980957 0,33.4109992980957 C0,33.150001525878906 0,32.888999938964844 0,32.62799835205078 C3.132999897003174,32.62799835205078 5.2210001945495605,31.583999633789062 5.2210001945495605,26.81999969482422 C5.2210001945495605,20.229333877563477 5.2210001945495605,13.638667106628418 5.2210001945495605,7.047999858856201 C5.2210001945495605,3.5889999866485596 3.5889999866485596,3.002000093460083 0.4569999873638153,3.002000093460083 C0.4569999873638153,2.740999937057495 0.4569999873638153,2.4800000190734863 0.4569999873638153,2.2190001010894775 C3.231539487838745,2.1113314628601074 5.948990345001221,1.398350477218628 8.418999671936035,0.12999999523162842 C8.593000411987305,0.21699999272823334 8.767000198364258,0.30399999022483826 8.940999984741211,0.39100000262260437 C8.940999984741211,3.1536667346954346 8.940999984741211,5.916333198547363 8.940999984741211,8.678999900817871 C10.180000305175781,3.8499999046325684 14.095999717712402,0 19.250999450683594,0 C25.05900001525879,0 28.71299934387207,3.8499999046325684 29.951000213623047,12.008000373840332 C30.66866683959961,16.967666625976562 31.386333465576172,21.92733383178711 32.104000091552734,26.886999130249023 C32.75600051879883,31.586999893188477 34.845001220703125,32.630001068115234 37.9119987487793,32.630001068115234 C37.9119987487793,32.89099884033203 37.9119987487793,33.152000427246094 37.9119987487793,33.41299819946289 C32.845333099365234,33.41299819946289 27.778667449951172,33.41299819946289 22.711999893188477,33.41299819946289 C22.711000442504883,33.151668548583984 22.709999084472656,32.89033508300781 22.708999633789062,32.62900161743164 C22.708999633789062,32.62900161743164 22.708999633789062,32.62900161743164 22.708999633789062,32.62900161743164z"></path></g></g><g style="display: block;" transform="matrix(1,0,0,1,1,5)" opacity="1"><g opacity="1" transform="matrix(1,0,0,1,0,48.89698028564453)"><path fill="rgb(232,82,111)" fill-opacity="1" d=" M0,6.393024921417236 C0,2.8420250415802 2.5250000953674316,0.0060249329544603825 5.699999809265137,0.0060249329544603825 C7.814541339874268,-0.11109362542629242 9.630488395690918,1.4931790828704834 9.774999618530273,3.606024980545044 C9.774999618530273,4.273025035858154 9.48900032043457,4.749024868011475 8.940999984741211,4.749024868011475 C8.50079345703125,4.763141632080078 8.140323638916016,4.402213096618652 8.154999732971191,3.9620249271392822 C8.154999732971191,3.533025026321411 8.46399974822998,3.2470250129699707 8.46399974822998,2.652024984359741 C8.326889991760254,1.25995934009552 7.09317684173584,0.2387092262506485 5.699999809265137,0.36402493715286255 C3.0309998989105225,0.36402493715286255 1.3389999866485596,2.914024829864502 1.3389999866485596,5.964025020599365 C1.3389999866485596,9.157025337219238 3.364000082015991,11.326025009155273 5.890999794006348,11.326025009155273 C8.085349082946777,11.338247299194336 9.935680389404297,9.693652153015137 10.180999755859375,7.513024806976318 C10.268333435058594,7.529025077819824 10.355667114257812,7.545024871826172 10.442999839782715,7.561025142669678 C10.013999938964844,10.421025276184082 8.154999732971191,12.447025299072266 5.389999866485596,12.447025299072266 C2.50600004196167,12.447025299072266 0.004000000189989805,10.016024589538574 0.004000000189989805,6.394024848937988"></path></g></g><g style="display: block;" transform="matrix(1,0,0,1,1,5)" opacity="1"><g opacity="1" transform="matrix(1,0,0,1,10.983999252319336,43.63900375366211)"><path fill="rgb(232,82,111)" fill-opacity="1" d=" M0.004000000189989805,17.180999755859375 C1.1480000019073486,17.180999755859375 1.9110000133514404,16.799999237060547 1.9110000133514404,15.0600004196167 C1.9190000295639038,10.889666557312012 1.9270000457763672,6.719333171844482 1.934999942779541,2.5490000247955322 C1.934999942779541,1.2860000133514404 1.3350000381469727,1.0709999799728394 0.19499999284744263,1.0490000247955322 C0.19499999284744263,0.9616666436195374 0.19499999284744263,0.8743333220481873 0.19499999284744263,0.7870000004768372 C1.2109720706939697,0.7473889589309692 2.204801559448242,0.4783336818218231 3.1019999980926514,0 C3.1656665802001953,0.03966666758060455 3.2293334007263184,0.0793333351612091 3.2929999828338623,0.11900000274181366 C3.2929999828338623,5.099999904632568 3.2929999828338623,10.081000328063965 3.2929999828338623,15.062000274658203 C3.2929999828338623,16.80299949645996 4.079999923706055,17.183000564575195 5.199999809265137,17.183000564575195 C5.199999809265137,17.27833366394043 5.199999809265137,17.373666763305664 5.199999809265137,17.4689998626709 C3.4666666984558105,17.4689998626709 1.7333333492279053,17.4689998626709 0,17.4689998626709 C0.0013333333190530539,17.37299919128418 0.0026666666381061077,17.277000427246094 0.004000000189989805,17.180999755859375 C0.004000000189989805,17.180999755859375 0.004000000189989805,17.180999755859375 0.004000000189989805,17.180999755859375z"></path></g></g><g style="display: block;" transform="matrix(1,0,0,1,1,5)" opacity="1"><g opacity="1" transform="matrix(1,0,0,1,16.731000900268555,44.231998443603516)"><g opacity="1" transform="matrix(1,0,0,1,0,0)"><path fill="rgb(232,82,111)" fill-opacity="1" d=" M0,16.58799934387207 C1.1440000534057617,16.58799934387207 1.906999945640564,16.207000732421875 1.906999945640564,14.467000007629395 C1.906999945640564,12.060333251953125 1.906999945640564,9.653666496276855 1.906999945640564,7.247000217437744 C1.906999945640564,5.984000205993652 1.3070000410079956,5.769000053405762 0.1679999977350235,5.769000053405762 C0.1679999977350235,5.673999786376953 0.1679999977350235,5.578999996185303 0.1679999977350235,5.484000205993652 C1.1809422969818115,5.443999767303467 2.1729822158813477,5.183619022369385 3.075000047683716,4.7210001945495605 C3.138333320617676,4.752666473388672 3.2016665935516357,4.784333229064941 3.265000104904175,4.815999984741211 C3.265000104904175,8.033333778381348 3.265000104904175,11.250666618347168 3.265000104904175,14.468000411987305 C3.265000104904175,16.20800018310547 4.052000045776367,16.589000701904297 5.171999931335449,16.589000701904297 C5.171999931335449,16.68400001525879 5.171999931335449,16.77899932861328 5.171999931335449,16.874000549316406 C3.447999954223633,16.874000549316406 1.7239999771118164,16.874000549316406 0,16.874000549316406 C0,16.778667449951172 0,16.683332443237305 0,16.58799934387207 C0,16.58799934387207 0,16.58799934387207 0,16.58799934387207z M1.2389999628067017,1.1440000534057617 C1.2389999628067017,0.26334840059280396 2.192333221435547,-0.28705886006355286 2.9549999237060547,0.15326693654060364 C3.3089547157287598,0.3576228618621826 3.5269999504089355,0.735288143157959 3.5269999504089355,1.1440000534057617 C3.5638298988342285,2.024651527404785 2.6335153579711914,2.6149284839630127 1.852433681488037,2.206498384475708 C1.4594545364379883,2.0010082721710205 1.2204700708389282,1.5870749950408936 1.2389999628067017,1.1440000534057617 C1.2389999628067017,1.1440000534057617 1.2389999628067017,1.1440000534057617 1.2389999628067017,1.1440000534057617z"></path><g opacity="1" transform="matrix(1,0,0,1,0,0)"></g><g opacity="1" transform="matrix(1,0,0,1,0,0)"></g></g></g></g><g style="display: block;" transform="matrix(1,0,0,1,1,5)" opacity="1"><g opacity="1" transform="matrix(1,0,0,1,22.475000381469727,48.89999771118164)"><path fill="rgb(232,82,111)" fill-opacity="1" d=" M8.293999671936035,11.920000076293945 C9.628000259399414,11.920000076293945 10.581999778747559,11.538999557495117 10.343999862670898,9.819999694824219 C10.097332954406738,8.080333709716797 9.850666999816895,6.340666770935059 9.604000091552734,4.60099983215332 C9.246999740600586,2.1700000762939453 8.222000122070312,0.8119999766349792 6.38700008392334,0.8119999766349792 C4.695000171661377,0.8119999766349792 3.359999895095825,2.5280001163482666 3.265000104904175,4.553999900817871 C3.265000104904175,6.302666664123535 3.265000104904175,8.0513334274292 3.265000104904175,9.800000190734863 C3.265000104904175,11.541000366210938 4.052000045776367,11.920999526977539 5.171000003814697,11.920999526977539 C5.171000003814697,12.01633358001709 5.171000003814697,12.111666679382324 5.171000003814697,12.206999778747559 C3.447333335876465,12.206999778747559 1.7236666679382324,12.206999778747559 0,12.206999778747559 C0,12.111666679382324 0,12.01633358001709 0,11.920999526977539 C1.1440000534057617,11.920999526977539 1.906000018119812,11.539999961853027 1.906000018119812,9.800000190734863 C1.906000018119812,7.39300012588501 1.906000018119812,4.986000061035156 1.906000018119812,2.5789999961853027 C1.906000018119812,1.315999984741211 1.305999994277954,1.1019999980926514 0.16699999570846558,1.1019999980926514 C0.16699999570846558,1.006666660308838 0.16699999570846558,0.9113333225250244 0.16699999570846558,0.8159999847412109 C1.1800472736358643,0.7767041325569153 2.172236919403076,0.5162842273712158 3.0739998817443848,0.05299999937415123 C3.137666702270508,0.0846666693687439 3.2013332843780518,0.11633333563804626 3.265000104904175,0.14800000190734863 C3.265000104904175,1.1573333740234375 3.265000104904175,2.1666667461395264 3.265000104904175,3.1760001182556152 C3.6360535621643066,1.375360131263733 5.1915998458862305,0.06281617283821106 7.0289998054504395,0 C9.149999618530273,0 10.484999656677246,1.406000018119812 10.937000274658203,4.385000228881836 C11.199333190917969,6.196000099182129 11.46166706085205,8.006999969482422 11.723999977111816,9.817999839782715 C11.961999893188477,11.53499984741211 12.723999977111816,11.918000221252441 13.845000267028809,11.918000221252441 C13.845000267028809,12.013333320617676 13.845000267028809,12.10866641998291 13.845000267028809,12.204000473022461 C11.994667053222656,12.204000473022461 10.144332885742188,12.204000473022461 8.293999671936035,12.204000473022461 C8.293999671936035,12.109333038330078 8.293999671936035,12.014666557312012 8.293999671936035,11.920000076293945 C8.293999671936035,11.920000076293945 8.293999671936035,11.920000076293945 8.293999671936035,11.920000076293945z"></path></g></g><g style="display: block;" transform="matrix(1,0,0,1,1,5)" opacity="1"><g opacity="1" transform="matrix(1,0,0,1,36.4900016784668,44.231998443603516)"><g opacity="1" transform="matrix(1,0,0,1,0,0)"><path fill="rgb(232,82,111)" fill-opacity="1" d=" M0,16.58799934387207 C1.1440000534057617,16.58799934387207 1.906999945640564,16.207000732421875 1.906999945640564,14.467000007629395 C1.906999945640564,12.060333251953125 1.906999945640564,9.653666496276855 1.906999945640564,7.246999740600586 C1.906999945640564,5.983999729156494 1.3070000410079956,5.769000053405762 0.1679999977350235,5.769000053405762 C0.1679999977350235,5.673999786376953 0.1679999977350235,5.578999996185303 0.1679999977350235,5.483999729156494 C1.1809422969818115,5.443999290466309 2.1729822158813477,5.183619022369385 3.075000047683716,4.720999717712402 C3.138333320617676,4.752666473388672 3.2016665935516357,4.784333229064941 3.265000104904175,4.815999984741211 C3.265000104904175,8.033332824707031 3.265000104904175,11.250666618347168 3.265000104904175,14.468000411987305 C3.265000104904175,16.20800018310547 4.052000045776367,16.589000701904297 5.171999931335449,16.589000701904297 C5.171999931335449,16.68400001525879 5.171999931335449,16.77899932861328 5.171999931335449,16.874000549316406 C3.447999954223633,16.874000549316406 1.7239999771118164,16.874000549316406 0,16.874000549316406 C0,16.778667449951172 0,16.683332443237305 0,16.58799934387207 C0,16.58799934387207 0,16.58799934387207 0,16.58799934387207z M1.2389999628067017,1.1439999341964722 C1.2390000820159912,0.2633483409881592 2.192333459854126,-0.28705888986587524 2.955000162124634,0.15326696634292603 C3.308954954147339,0.357622891664505 3.5269999504089355,0.735288143157959 3.5269999504089355,1.1439999341964722 C3.5638298988342285,2.024651527404785 2.6335153579711914,2.6149284839630127 1.852433681488037,2.206498146057129 C1.4594545364379883,2.0010080337524414 1.2204700708389282,1.5870749950408936 1.2389999628067017,1.1439999341964722 C1.2389999628067017,1.1439999341964722 1.2389999628067017,1.1439999341964722 1.2389999628067017,1.1439999341964722z"></path><g opacity="1" transform="matrix(1,0,0,1,0,0)"></g><g opacity="1" transform="matrix(1,0,0,1,0,0)"></g></g></g></g><g style="display: block;" transform="matrix(1,0,0,1,1,5)" opacity="1"><g opacity="1" transform="matrix(1,0,0,1,42.6870002746582,48.897029876708984)"><path fill="rgb(232,82,111)" fill-opacity="1" d=" M0,6.392971038818359 C0,2.8419711589813232 2.5269999504089355,0.005971051752567291 5.699999809265137,0.005971051752567291 C7.81434965133667,-0.11059612780809402 9.629964828491211,1.4933831691741943 9.774999618530273,3.605971097946167 C9.774999618530273,4.272971153259277 9.48900032043457,4.748970985412598 8.940999984741211,4.748970985412598 C8.500650405883789,4.763054370880127 8.13991641998291,4.402320861816406 8.154000282287598,3.9619710445404053 C8.154000282287598,3.532971143722534 8.46399974822998,3.2469711303710938 8.46399974822998,2.6519711017608643 C8.326889991760254,1.259905457496643 7.09317684173584,0.23865534365177155 5.699999809265137,0.3639710545539856 C3.0309998989105225,0.3639710545539856 1.3389999866485596,2.913970947265625 1.3389999866485596,5.963971138000488 C1.3389999866485596,9.156970977783203 3.364000082015991,11.325970649719238 5.890999794006348,11.325970649719238 C8.085522651672363,11.338654518127441 9.936117172241211,9.693824768066406 10.180999755859375,7.512970924377441 C10.268333435058594,7.528971195220947 10.355667114257812,7.544970989227295 10.442999839782715,7.560971260070801 C10.013999938964844,10.420970916748047 8.154999732971191,12.44697093963623 5.389999866485596,12.44697093963623 C2.50600004196167,12.44697093963623 0.004000000189989805,10.015971183776855 0.004000000189989805,6.393970966339111"></path></g></g></g></g></g><g clip-path="url(#__lottie_element_59)" style="display: block;" transform="matrix(1,0,0,1,142,92)" opacity="1"><g mask="url(#__lottie_element_117_1)" style="display: block;"><g clip-path="url(#__lottie_element_114)" transform="matrix(1,0,0,1,0,0)" opacity="1"><g style="display: block;" transform="matrix(1,0,0,1,53,51)" opacity="1"><path fill="rgb(0,0,0)" fill-opacity="0" d=" M52,-51 C52,-51 52,38 52,38 C52,38 -53,38 -53,38 C-53,38 -53,-51 -53,-51 C-53,-51 52,-51 52,-51z"></path></g><g style="display: block;" transform="matrix(1,0,0,1,53,51)" opacity="1"><g opacity="1" transform="matrix(2.443514585494995,0,0,2.443514585494995,-31.1920166015625,-29.77838134765625)"><g opacity="1" transform="matrix(1,0,0,1,0,0.0000019073486328125)"><path fill="rgb(232,82,111)" fill-opacity="1" d=" M17.4023494720459,2.3281192779541016 C17.4023494720459,2.3281192779541016 17.4023494720459,2.3281192779541016 17.4023494720459,2.3281192779541016 C17.458349227905273,2.356119155883789 17.515348434448242,2.383119583129883 17.571348190307617,2.413118362426758 C23.346349716186523,5.363115310668945 25.828351974487305,10.300119400024414 21.94434928894043,13.764116287231445 C21.228857040405273,14.299455642700195 21.082822799682617,15.313455581665039 21.618162155151367,16.028947830200195 C21.742788314819336,16.195505142211914 21.898351669311523,16.33646583557129 22.076353073120117,16.444116592407227 C22.84735679626465,16.894113540649414 23.911352157592773,16.770112991333008 24.586355209350586,15.444116592407227 C26.546354293823242,11.608118057250977 25.8863582611084,5.713113784790039 18.438352584838867,1.9061146974563599 C18.092348098754883,1.7454472780227661 17.74634552001953,1.5847798585891724 17.40034294128418,1.4241124391555786 C10.471341133117676,-1.5848902463912964 3.2353415489196777,0.4391118288040161 0.9003424048423767,5.015115737915039 C-0.630655825138092,8.015115737915039 -0.1446557492017746,10.652116775512695 1.8693442344665527,13.236116409301758 C2.0156784057617188,13.42211627960205 2.162012815475464,13.608115196228027 2.308347225189209,13.79411506652832 C3.4104437828063965,15.038423538208008 4.648122310638428,16.15568733215332 5.998349666595459,17.1251163482666 C8.806683540344238,19.208450317382812 11.615017890930176,21.29178237915039 14.423352241516113,23.3751163482666 C15.269257545471191,24.035261154174805 16.39753532409668,24.367956161499023 17.413558959960938,24.373403549194336 C17.422487258911133,23.676305770874023 17.431415557861328,22.979209899902344 17.440343856811523,22.282114028930664 C16.934614181518555,22.276819229125977 16.44312858581543,22.113916397094727 16.034345626831055,21.816110610961914 C13.236010551452637,19.80144500732422 10.437675476074219,17.78677749633789 7.639340877532959,15.772111892700195 C3.1083426475524902,12.456110000610352 1.2393393516540527,8.912111282348633 3.1793417930603027,5.120111465454102 C5.05634069442749,1.4471150636672974 10.7383394241333,-0.42588603496551514 16.412343978881836,1.8811131715774536 C16.742345809936523,2.0301151275634766 17.07234764099121,2.179117202758789 17.4023494720459,2.3281192779541016 C17.4023494720459,2.3281192779541016 17.4023494720459,2.3281192779541016 17.4023494720459,2.3281192779541016 C17.4023494720459,2.3281192779541016 17.4023494720459,2.3281192779541016 17.4023494720459,2.3281192779541016z"></path></g></g></g></g></g></g><g clip-path="url(#__lottie_element_64)" style="display: block;" transform="matrix(-1,0,0,1,269.68798828125,92.08297729492188)" opacity="1"><g mask="url(#__lottie_element_130_1)" style="display: block;"><g clip-path="url(#__lottie_element_127)" transform="matrix(1,0,0,1,0,0)" opacity="1"><g style="display: block;" transform="matrix(1,0,0,1,53,51)" opacity="1"><path fill="rgb(0,0,0)" fill-opacity="0" d=" M52,-51 C52,-51 52,37 52,37 C52,37 -53,37 -53,37 C-53,37 -53,-51 -53,-51 C-53,-51 52,-51 52,-51z"></path></g><g style="display: block;" transform="matrix(1,0,0,1,53,51)" opacity="1"><g opacity="1" transform="matrix(2.443514585494995,0,0,2.443514585494995,-31.1920166015625,-29.77838134765625)"><g opacity="1" transform="matrix(1,0,0,1,0,0.0000019073486328125)"><path fill="rgb(232,82,111)" fill-opacity="1" d=" M17.4023494720459,2.3281192779541016 C17.4023494720459,2.3281192779541016 17.4023494720459,2.3281192779541016 17.4023494720459,2.3281192779541016 C17.458349227905273,2.356119155883789 17.515348434448242,2.383119583129883 17.571348190307617,2.413118362426758 C23.346349716186523,5.363115310668945 25.828351974487305,10.300119400024414 21.94434928894043,13.764116287231445 C21.228857040405273,14.299455642700195 21.082822799682617,15.313455581665039 21.618162155151367,16.028947830200195 C21.742788314819336,16.195505142211914 21.898351669311523,16.33646583557129 22.076353073120117,16.444116592407227 C22.84735679626465,16.894113540649414 23.911352157592773,16.770112991333008 24.586355209350586,15.444116592407227 C26.546354293823242,11.608118057250977 25.8863582611084,5.713113784790039 18.438352584838867,1.9061146974563599 C18.092348098754883,1.7454472780227661 17.74634552001953,1.5847798585891724 17.40034294128418,1.4241124391555786 C10.471341133117676,-1.5848902463912964 3.2353415489196777,0.4391118288040161 0.9003424048423767,5.015115737915039 C-0.630655825138092,8.015115737915039 -0.1446557492017746,10.652116775512695 1.8693442344665527,13.236116409301758 C2.0156784057617188,13.42211627960205 2.162012815475464,13.608115196228027 2.308347225189209,13.79411506652832 C3.4104437828063965,15.038423538208008 4.648122310638428,16.15568733215332 5.998349666595459,17.1251163482666 C8.806683540344238,19.208450317382812 11.615017890930176,21.29178237915039 14.423352241516113,23.3751163482666 C15.269257545471191,24.035261154174805 16.39753532409668,24.367956161499023 17.413558959960938,24.373403549194336 C17.422487258911133,23.676305770874023 17.431415557861328,22.979209899902344 17.440343856811523,22.282114028930664 C16.934614181518555,22.276819229125977 16.44312858581543,22.113916397094727 16.034345626831055,21.816110610961914 C13.236010551452637,19.80144500732422 10.437675476074219,17.78677749633789 7.639340877532959,15.772111892700195 C3.1083426475524902,12.456110000610352 1.2393393516540527,8.912111282348633 3.1793417930603027,5.120111465454102 C5.05634069442749,1.4471150636672974 10.7383394241333,-0.42588603496551514 16.412343978881836,1.8811131715774536 C16.742345809936523,2.0301151275634766 17.07234764099121,2.179117202758789 17.4023494720459,2.3281192779541016 C17.4023494720459,2.3281192779541016 17.4023494720459,2.3281192779541016 17.4023494720459,2.3281192779541016 C17.4023494720459,2.3281192779541016 17.4023494720459,2.3281192779541016 17.4023494720459,2.3281192779541016z"></path></g></g></g></g></g></g></g></svg>